<svg width="192" height="59" viewBox="0 0 192 59" fill="none" xmlns="http://www.w3.org/2000/svg">
<path d="M24.912 43.7144L19.116 35.4344C22.536 34.1024 24.48 31.2944 24.48 27.4784C24.48 21.8984 20.376 18.5144 13.752 18.5144H3.384V43.7144H8.064V36.3704H13.752C14.076 36.3704 14.4 36.3704 14.724 36.3344L19.872 43.7144H24.912ZM19.764 27.4784C19.764 30.6464 17.64 32.5184 13.536 32.5184H8.064V22.4744H13.536C17.64 22.4744 19.764 24.3104 19.764 27.4784ZM38.428 40.1504C35.62 40.1504 33.532 38.9624 32.596 36.7664L47.32 33.8864C47.284 27.8744 42.964 24.2744 37.6 24.2744C31.876 24.2744 27.7 28.3784 27.7 34.1024C27.7 39.8264 31.876 43.9664 38.32 43.9664C41.632 43.9664 44.332 42.8864 46.024 40.8344L43.648 38.0624C42.244 39.4664 40.588 40.1504 38.428 40.1504ZM37.6 27.8744C40.3 27.8744 42.316 29.4584 42.928 31.7984L32.056 33.8864V33.8504C32.056 30.1784 34.324 27.8744 37.6 27.8744ZM61.1834 39.4664C60.4994 40.0064 59.5994 40.2584 58.6634 40.2584C56.9714 40.2584 55.9994 39.2504 55.9994 37.3784V28.2344H61.1474V24.6344H55.9994V20.2424H51.4994V37.4864C51.4994 41.7344 53.9114 43.9664 58.1234 43.9664C59.7434 43.9664 61.3634 43.5344 62.4434 42.6704L61.1834 39.4664ZM70.4469 27.2984V24.4904H66.1629V43.7144H70.6629V34.3904C70.6629 30.4664 72.8229 28.4504 76.2429 28.4504C76.5669 28.4504 76.8909 28.4864 77.2869 28.5584V24.2744C74.0829 24.2744 71.7429 25.2824 70.4469 27.2984ZM89.5686 43.9664C95.5446 43.9664 99.8286 39.8624 99.8286 34.1024C99.8286 28.3424 95.5446 24.2744 89.5686 24.2744C83.6646 24.2744 79.3446 28.3424 79.3446 34.1024C79.3446 39.8624 83.6646 43.9664 89.5686 43.9664ZM89.5686 40.1144C86.3286 40.1144 83.8806 37.7744 83.8806 34.1024C83.8806 30.4304 86.3286 28.0904 89.5686 28.0904C92.8446 28.0904 95.2926 30.4304 95.2926 34.1024C95.2926 37.7744 92.8446 40.1144 89.5686 40.1144Z" fill="white"/>
<path d="M117.319 39.7827C113.951 39.3459 109.088 36.4287 114.309 26.8976C120.651 15.3228 131.076 11.6102 135.698 10.8458C141.072 9.95703 148.811 11.3918 142.899 23.1849C139.964 29.0398 128.927 37.0528 126.562 38.1447M128.927 28.8631C127.314 33.7769 124.133 44.0631 124.305 45.8976M126.455 38.4723C130.646 34.4321 141.267 33.7769 139.245 41.8574C137.633 48.2999 132.474 53.319 126.025 55.8344C116.244 59.6495 115.814 55.0701 117.534 52.7769M152.787 34.8689C151.605 36.5796 150.53 40.0768 150.53 41.9666C150.53 44.1505 154.185 45.1333 159.666 33.9953C159.813 33.6694 159.979 33.3084 160.157 32.9198M160.157 32.9198C161.624 29.7055 163.841 24.6023 161.923 21.8746C159.877 18.964 156.872 18.3803 154.185 21.2194C151.882 23.6527 150.687 32.637 160.157 32.9198ZM160.157 32.9198C161.753 32.9675 163.652 32.7679 165.9 32.2482C166.185 32.2482 161.116 41.1148 162.663 42.9493C164.211 44.7838 168.539 39.4915 170.509 36.616M137.31 54.4149C137.955 54.4149 157.731 45.4608 177.83 48.9551M174.837 20.3547L173.515 22.7393M185.354 2.00098L180.917 9.61797M180.917 9.61797L179.12 12.7021M180.917 9.61797L160.112 8.55355M180.917 9.61797L189.976 10.0815M160.096 8.55271L160.112 8.55355M160.112 8.55355L160.112 8.55271M160.112 8.55355L174.18 25.8022M173.209 48.1907L174.176 25.8056L174.18 25.8022M174.18 25.8022L174.185 25.8086M174.18 25.8022L190 10.0815M151.175 35.8516C150.96 33.9953 148.166 31.2654 144.834 35.1964C139.477 41.5165 144.189 46.4436 148.058 42.7309C150.745 40.1527 151.175 37.0528 151.175 35.8516ZM178.882 13.2563C179.356 13.7062 180.047 15.1233 179.023 17.1927C177.999 19.2622 176.302 19.8748 175.582 19.9224C174.814 19.5302 173.633 18.0293 175.052 15.1639C176.47 12.2985 178.196 12.6982 178.882 13.2563Z" stroke="white" stroke-width="3" stroke-linecap="round"/>
</svg>
